<?xml version="1.0" standalone="no"?>
<!DOCTYPE svg PUBLIC "-//W3C//DTD SVG 20010904//EN"
 "http://www.w3.org/TR/2001/REC-SVG-20010904/DTD/svg10.dtd">
<svg version="1.0" xmlns="http://www.w3.org/2000/svg"
 width="512.000000pt" height="512.000000pt" viewBox="0 0 512.000000 512.000000"
 preserveAspectRatio="xMidYMid meet">

<g transform="translate(0.000000,512.000000) scale(0.100000,-0.100000)"
fill="#000000" stroke="none">
<path d="M1281 3891 c-701 -609 -1273 -1112 -1272 -1117 2 -11 244 -293 252
-293 3 -1 57 43 120 98 l114 99 5 -1037 5 -1036 23 -65 c76 -210 244 -362 447
-405 57 -12 180 -15 658 -15 l587 0 0 980 0 980 350 0 350 0 0 -980 0 -980
578 0 c643 0 660 2 791 66 52 26 96 58 146 108 77 77 120 144 157 246 l23 65
5 1036 5 1037 114 -99 c63 -55 117 -99 120 -98 3 0 36 35 72 77 36 42 94 109
127 148 l62 71 -1277 1109 c-702 610 -1279 1110 -1282 1111 -3 1 -579 -497
-1280 -1106z m2113 -144 l826 -718 0 -1172 0 -1173 -25 -51 c-17 -33 -41 -61
-68 -79 l-42 -29 -382 -3 -383 -3 0 981 0 980 -750 0 -750 0 0 -980 0 -981
-392 3 -393 3 -42 29 c-27 18 -51 46 -68 79 l-25 51 0 1173 0 1172 827 720
c456 396 831 719 834 718 4 -1 378 -325 833 -720z"/>
</g>
</svg>
